# AST/ASF file generated using VICON BodyLanguage
# -----------------------------------------------
:version 1.10
:name VICON
:units
  mass 1.0
  length 0.45
  angle deg
:documentation
   .ast/.asf automatically generated from VICON data using
   VICON BodyBuilder and BodyLanguage model FoxedUp or BRILLIANT.MOD
:root
   order TX TY TZ RX RY RZ
   axis XYZ
   position 0 0 0  
   orientation 0 0 0 
:bonedata
  begin
     id 1 
     name lhipjoint
     direction 0.440178 -0.822639 0.359871 
     length 2.53113 
     axis 0 0 0  XYZ
  end
  begin
     id 2 
     name lfemur
     direction 0.34202 -0.939693 0  
     length 7.88132  
     axis 0 0 20  XYZ
    dof rx ry rz
    limits (-160.0 20.0)
           (-70.0 70.0)
           (-60.0 70.0)
  end
  begin
     id 3 
     name ltibia
     direction 0.34202 -0.939693 0   
     length 8.43783   
     axis 0 0 20   XYZ
    dof rx
    limits (-10.0 170.0)
  end
  begin
     id 4 
     name lfoot
     direction 0.0886351 -0.243523 0.965837   
     length 2.63414   
     axis -90 7.62852e-016 20   XYZ
    dof rx rz
    limits (-45.0 90.0)
           (-70.0 20.0)
  end
  begin
     id 5 
     name ltoes
     direction 1.53703e-011 -4.21717e-011 1   
     length 1.31427   
     axis -90 7.62852e-016 20   XYZ
    dof rx
    limits (-90.0 20.0)
  end
  begin
     id 6 
     name rhipjoint
     direction -0.399779 -0.839773 0.367367   
     length 2.47948  
     axis 0 0 0  XYZ 
  end
  begin
     id 7 
     name rfemur
     direction -0.34202 -0.939693 0   
     length 7.74806   
     axis 0 0 -20   XYZ
    dof rx ry rz
    limits (-160.0 20.0)
           (-70.0 70.0)
           (-70.0 60.0)
  end
  begin
     id 8 
     name rtibia
     direction -0.34202 -0.939693 0   
     length 8.74432   
     axis 0 0 -20   XYZ
    dof rx
    limits (-10.0 170.0)
 end
 begin
     id 9 
     name rfoot
     direction -0.108514 -0.298139 0.948334   
     length 2.66102  
     axis -90 -7.62852e-016 -20   XYZ
    dof rx rz
    limits (-45.0 90.0)
           (-20.0 70.0)
  end
  begin
     id 10 
     name rtoes
     direction -1.53392e-011 -4.22077e-011 1   
     length 1.31983   
     axis -90 -7.62852e-016 -20   XYZ
    dof rx
    limits (-90.0 20.0)
  end
  begin
     id 11 
     name lowerback
     direction 0.0113257 0.999866 0.0118602   
     length 2.58694   
     axis 0 0 0   XYZ
    dof rx ry rz
    limits (-20.0 45.0)
           (-30.0 30.0)
           (-30.0 30.0)
  end
  begin
     id 12 
     name upperback
     direction -0.0164747 0.995193 -0.0965375   
     length 2.52368   
     axis 0 0 0   XYZ
    dof rx ry rz
    limits (-20.0 45.0)
           (-30.0 30.0)
           (-30.0 30.0)
  end
  begin
     id 13 
     name thorax
     direction -0.0194301 0.99433 -0.104552   
     length 2.56099   
     axis 0 0 0   XYZ
    dof rx ry rz
    limits (-20.0 45.0)
           (-30.0 30.0)
           (-30.0 30.0)
  end
  begin
     id 14 
     name lowerneck
     direction 0.0148543 0.995587 -0.092657   
     length 1.71582   
     axis 0 0 0   XYZ
    dof rx ry rz
    limits (-20.0 45.0)
           (-30.0 30.0)
           (-30.0 30.0)
  end
  begin
     id 15 
     name upperneck
     direction -0.0135467 0.993656 -0.111639   
     length 1.68937   
     axis 0 0 0   XYZ
    dof rx ry rz
    limits (-20.0 45.0)
           (-30.0 30.0)
           (-30.0 30.0)
  end
  begin
     id 16
     name head
     direction -0.00615349 0.999547 -0.029448  
     length 1.7462  
     axis 0 0 0   XYZ
    dof rx ry rz
    limits (-20.0 45.0)
           (-30.0 30.0)
           (-30.0 30.0)
  end
  begin
     id 17 
     name lclavicle
     direction 0.988267 0.149885 0.0293713  
     length 4.47222  
     axis 0 0 0   XYZ
    dof ry rz
    limits (-20.0 10.0)
           (0.0 20.0)
  end
  begin
     id 18 
     name lhumerus
     direction 1 -4.48986e-011 -1.14833e-027   
     length 5.37148   
     axis 180 -30 -90   XYZ
    dof rx ry rz
    limits (-60.0 90.0)
           (-90.0 90.0)
           (-90.0 90.0)
  end
  begin
     id 19
     name lradius
     direction 0.999998 0.00170963 -0.000987055   
     length 3.94212   
     axis 180 -30 -90   XYZ
    dof rx
    limits (-10.0 170.0)
  end
  begin
     id 20
     name lwrist
     direction 0.999998 7.53149e-005 -0.00194706   
     length 1.97106   
     axis 4.65056e-015 90 90   XYZ
    dof ry
    limits (-180.0 0.0)
 end
  begin
     id 21 
     name lhand
     direction 1 -4.48973e-011 -1.31746e-026   
     length 1.17917   
     axis 8.4065e-015 90 90   XYZ
    dof rx rz
    limits (-90.0 90.0)
           (-45.0 45.0)
  end
  begin
     id 22 
     name lfingers
     direction 1 -4.49107e-011 -2.63492e-026   
     length 0.950679   
     axis 1.6813e-014 90 90   XYZ
    dof rx
    limits (0.0 90.0)
  end
  begin
     id 23
     name lthumb
     direction 0.707107 -6.35048e-011 0.707107   
     length 1.36499   
     axis -90 45 2.85299e-015   XYZ
    dof rx rz
    limits (-45.0 45.0)
           (-45.0 45.0)
  end
  begin
     id 24 
     name rclavicle
     direction -0.996699 0.0642895 -0.0495725   
     length 4.62611  
     axis 0 0 0   XYZ 
    dof ry rz
    limits (-10.0 20.0)
           (-20.0 0.0)
  end
  begin
     id 25 
     name rhumerus
     direction -1 -4.48919e-011 -2.41059e-027  
     length 5.4981   
     axis 180 30 90   XYZ
    dof rx ry rz
    limits (-90.0 60.0)
           (-90.0 90.0)
           (-90.0 90.0)
  end
  begin
     id 26 
     name rradius
     direction -0.999999 0.00118101 -0.000681858   
     length 3.48381   
     axis 180 30 90   XYZ
    dof rx
    limits (-10.0 170.0)
  end
  begin
     id 27 
     name rwrist
     direction -0.999999 0.000321823 -0.00132288   
     length 1.7419   
     axis 4.65056e-015 -90 -90   XYZ
    dof ry
    limits (-180.0 0.0)
  end
  begin
     id 28
     name rhand
     direction -1 -4.49022e-011 -1.31746e-026   
     length 1.34932   
     axis 8.4065e-015 -90 -90   XYZ
    dof rx rz
    limits (-90.0 90.0)
           (-45.0 45.0)
  end
  begin
     id 29
     name rfingers
     direction -1 -4.49178e-011 -2.63492e-026   
     length 1.08785   
     axis 1.6813e-014 -90 -90   XYZ
    dof rx
    limits (0.0 90.0)
  end
  begin
     id 30
     name rthumb
     direction -0.707107 -6.34713e-011 0.707107   
     length 1.56195   
     axis -90 -45 -2.85299e-015   XYZ
    dof rx rz
    limits (-45.0 45.0)
           (-45.0 45.0)
  end
:hierarchy
  begin
    root lhipjoint rhipjoint lowerback
    lhipjoint lfemur
    lfemur ltibia
    ltibia lfoot
    lfoot ltoes
    rhipjoint rfemur
    rfemur rtibia
    rtibia rfoot
    rfoot rtoes
    lowerback upperback
    upperback thorax
    thorax lowerneck lclavicle rclavicle
    lowerneck upperneck
    upperneck head
    lclavicle lhumerus
    lhumerus lradius
    lradius lwrist
    lwrist lhand lthumb
    lhand lfingers
    rclavicle rhumerus
    rhumerus rradius
    rradius rwrist
    rwrist rhand rthumb
    rhand rfingers
  end

#!OML:ASF X:\für Bonn\!DataBase\2005_08_10_Bjorn_Final\c3d\bjorn.ASF
:FULLY-SPECIFIED
:DEGREES
1
root 1.08625 18.9607 13.3496 -362.2 -154.946 2.32265
lowerback 11.8718 2.32482 -3.3932
upperback 15.0862 0.47271 0.418899
thorax 9.51069 -1.12762 2.15604
lowerneck -3.90764 -1.2274 1.44623
upperneck 22.5121 -2.94466 -1.27416
head 7.50487 -1.84417 -0.941545
rclavicle -8.74653e-014 5.68524e-014
rhumerus -197.55 -154.15 96.4612
rradius 34.202
rwrist 9.40565
rhand -22.0426 14.7141
rfingers 7.12502
rthumb 4.36768 -15.2208
lclavicle -8.74653e-014 5.68524e-014
lhumerus -376.451 3.4999 -281.301
lradius 28.1569
lwrist -11.2743
lhand -24.1831 -5.18754
lfingers 7.12502
lthumb 2.30051 24.7798
rfemur -6.64103 7.258 7.7732
rtibia 33.9213
rfoot -14.4436 12.5728
rtoes -17.9174
lfemur -11.507 -0.305306 -7.73602
ltibia 28.396
lfoot -9.93093 -6.10143
ltoes -19.411
2
root 1.02558 18.9843 13.3992 -362.122 -155.785 2.59291
lowerback 11.8554 2.35384 -3.30122
upperback 15.0475 0.503498 0.496014
thorax 9.47188 -1.11029 2.18674
lowerneck -3.80226 -1.28802 1.4374
upperneck 22.7565 -3.16528 -0.894762
head 7.57203 -1.93243 -0.83661
rclavicle 3.97569e-015 -3.33958e-014
rhumerus -197.67 -154.062 96.613
rradius 34.0023
rwrist 9.51374
rhand -21.7679 14.7809
rfingers 7.12502
rthumb 4.6329 -15.1485
lclavicle 3.97569e-015 -3.33958e-014
lhumerus -376.767 3.36816 -281.518
lradius 29.2166
lwrist -9.52767
lhand -25.4145 -5.2725
lfingers 7.12502
lthumb 1.11124 24.7043
rfemur -7.00128 6.34984 8.18362
rtibia 33.918
rfoot -14.6185 12.3954
rtoes -17.8681
lfemur -11.4829 0.0365853 -7.66688
ltibia 28.3307
lfoot -9.95857 -5.56287
ltoes -19.1268
3
root 0.964704 19.0077 13.4476 -362.034 -156.604 2.77479
lowerback 11.8443 2.38513 -3.25118
upperback 15.03 0.529809 0.555539
thorax 9.45537 -1.10151 2.22125
lowerneck -3.74523 -1.34548 1.47514
upperneck 23.0071 -3.38314 -0.544996
head 7.64992 -2.01713 -0.749719
rclavicle 2.50469e-014 -1.70955e-014
rhumerus -197.769 -153.992 96.7588
rradius 33.8515
rwrist 9.62179
rhand -21.3742 14.8031
rfingers 7.12502
rthumb 5.01308 -15.1176
lclavicle 2.50469e-014 -1.70955e-014
lhumerus -377.068 3.23549 -281.74
lradius 30.2187
lwrist -7.96131
lhand -26.6929 -5.36079
lfingers 7.12502
lthumb -0.123451 24.6189
rfemur -7.33247 5.37641 8.52419
rtibia 33.9185
rfoot -14.808 12.4302
rtoes -17.803
lfemur -11.4025 0.291544 -7.68696
ltibia 28.2188
lfoot -10.0028 -4.99287
ltoes -18.8447
4
root 0.904867 19.032 13.4965 -361.933 -157.416 2.91521
lowerback 11.8516 2.40191 -3.23396
upperback 15.0106 0.533723 0.604171
thorax 9.42757 -1.1067 2.26312
lowerneck -3.68663 -1.37591 1.65428
upperneck 23.2269 -3.54408 -0.357588
head 7.71309 -2.07652 -0.734992
rclavicle 7.43455e-014 -2.50469e-014
rhumerus -197.84 -153.946 96.8658
rradius 33.6726
rwrist 9.84485
rhand -20.9913 14.8928
rfingers 7.12502
rthumb 5.38275 -15.0188
lclavicle 7.43455e-014 -2.50469e-014
lhumerus -377.407 3.16102 -281.985
lradius 31.2211
lwrist -6.56526
lhand -27.9563 -5.40669
lfingers 7.12502
lthumb -1.34373 24.5688
rfemur -7.6782 4.36953 8.82913
rtibia 33.923
rfoot -14.9651 12.6606
rtoes -17.4826
lfemur -11.3122 0.568284 -7.75414
ltibia 28.0825
lfoot -10.0382 -4.43345
ltoes -18.6314
5
root 0.845265 19.0545 13.5454 -361.846 -158.221 3.01175
lowerback 11.8965 2.42294 -3.25835
upperback 15.0057 0.532152 0.667393
thorax 9.39603 -1.12274 2.34355
lowerneck -3.62005 -1.42087 1.93882
upperneck 23.3661 -3.6926 -0.326348
head 7.74316 -2.13232 -0.786565
rclavicle -1.94809e-014 -1.70955e-014
rhumerus -197.879 -153.981 96.9799
rradius 33.5305
rwrist 10.0343
rhand -20.617 14.9527
rfingers 7.12502
rthumb 5.74413 -14.9494
lclavicle -1.94809e-014 -1.70955e-014
lhumerus -377.717 3.08839 -282.216
lradius 32.1379
lwrist -5.2397
lhand -29.114 -5.5287
lfingers 7.12502
lthumb -2.4618 24.4368
rfemur -7.99298 3.3523 9.09635
rtibia 33.9315
rfoot -15.0827 13.0986
rtoes -16.8768
lfemur -11.1922 0.79469 -7.86633
ltibia 27.9399
lfoot -10.049 -3.84388
ltoes -18.1819
6
root 0.785749 19.0762 13.5971 -361.745 -159.031 3.10512
lowerback 11.9653 2.419 -3.26489
upperback 14.9811 0.501069 0.720543
thorax 9.33031 -1.14865 2.40491
lowerneck -3.54743 -1.44601 2.29632
upperneck 23.494 -3.80167 -0.38747
head 7.76534 -2.17159 -0.877578
rclavicle 2.98177e-014 -4.25399e-014
rhumerus -197.901 -153.991 97.0605
rradius 33.3522
rwrist 10.3095
rhand -20.2213 15.0803
rfingers 7.12502
rthumb 6.12615 -14.8111
lclavicle 2.98177e-014 -4.25399e-014
lhumerus -378.06 3.01974 -282.473
lradius 32.9942
lwrist -4.10565
lhand -30.2707 -5.61039
lfingers 7.12502
lthumb -3.57886 24.3393
rfemur -8.34128 2.34201 9.35311
rtibia 33.9496
rfoot -15.0801 13.7201
rtoes -15.7709
lfemur -11.0992 0.974745 -7.98526
ltibia 27.8057
lfoot -10.0626 -3.24004
ltoes -17.678
